<mxfile host="Electron" agent="Mozilla/5.0 (X11; Linux x86_64) AppleWebKit/537.36 (KHTML, like Gecko) draw.io/28.2.5 Chrome/138.0.7204.251 Electron/37.6.1 Safari/537.36" version="28.2.5">
  <diagram name="Page-1" id="of2-15Al7RUXmyWNHViR">
    <mxGraphModel dx="1426" dy="790" grid="1" gridSize="10" guides="1" tooltips="1" connect="1" arrows="1" fold="1" page="1" pageScale="1" pageWidth="850" pageHeight="1100" math="0" shadow="0">
      <root>
        <mxCell id="0" />
        <mxCell id="1" parent="0" />
        <mxCell id="_5ssbvDYdrKCU200Lkuo-35" style="edgeStyle=orthogonalEdgeStyle;rounded=0;orthogonalLoop=1;jettySize=auto;html=1;exitX=1;exitY=0.5;exitDx=0;exitDy=0;exitPerimeter=0;flowAnimation=1;" parent="1" source="_5ssbvDYdrKCU200Lkuo-17" edge="1">
          <mxGeometry relative="1" as="geometry">
            <mxPoint x="370" y="955.7692307692305" as="targetPoint" />
          </mxGeometry>
        </mxCell>
        <mxCell id="_5ssbvDYdrKCU200Lkuo-17" value="User" style="html=1;whiteSpace=wrap;strokeColor=none;fillColor=#0079D6;labelPosition=center;verticalLabelPosition=middle;verticalAlign=top;align=center;fontSize=12;outlineConnect=0;spacingTop=-6;fontColor=#FFFFFF;sketch=0;shape=mxgraph.sitemap.user;" parent="1" vertex="1">
          <mxGeometry x="70" y="920" width="120" height="70" as="geometry" />
        </mxCell>
        <mxCell id="_5ssbvDYdrKCU200Lkuo-18" value="&lt;font style=&quot;font-size: 18px;&quot;&gt;&lt;b&gt;&lt;br&gt;&lt;/b&gt;&lt;/font&gt;&lt;div&gt;&lt;font size=&quot;3&quot;&gt;&lt;b&gt;ADVOGADO&lt;/b&gt;&lt;/font&gt;&lt;/div&gt;" style="text;html=1;align=center;verticalAlign=middle;resizable=0;points=[];autosize=1;strokeColor=none;fillColor=none;" parent="1" vertex="1">
          <mxGeometry x="70" y="990" width="120" height="50" as="geometry" />
        </mxCell>
        <mxCell id="_5ssbvDYdrKCU200Lkuo-36" style="edgeStyle=orthogonalEdgeStyle;rounded=0;orthogonalLoop=1;jettySize=auto;html=1;flowAnimation=1;" parent="1" source="_5ssbvDYdrKCU200Lkuo-20" edge="1">
          <mxGeometry relative="1" as="geometry">
            <mxPoint x="424.99999999999955" y="680" as="targetPoint" />
          </mxGeometry>
        </mxCell>
        <mxCell id="xkQM3YN7b_TWWr8_xw1Q-6" style="edgeStyle=orthogonalEdgeStyle;rounded=0;orthogonalLoop=1;jettySize=auto;html=1;flowAnimation=1;" edge="1" parent="1" source="_5ssbvDYdrKCU200Lkuo-20">
          <mxGeometry relative="1" as="geometry">
            <mxPoint x="570" y="959" as="targetPoint" />
          </mxGeometry>
        </mxCell>
        <mxCell id="xkQM3YN7b_TWWr8_xw1Q-9" style="edgeStyle=orthogonalEdgeStyle;rounded=0;orthogonalLoop=1;jettySize=auto;html=1;flowAnimation=1;" edge="1" parent="1" source="_5ssbvDYdrKCU200Lkuo-20" target="xkQM3YN7b_TWWr8_xw1Q-10">
          <mxGeometry relative="1" as="geometry">
            <mxPoint x="520" y="910" as="targetPoint" />
          </mxGeometry>
        </mxCell>
        <mxCell id="_5ssbvDYdrKCU200Lkuo-20" value="" style="sketch=0;points=[[0,0,0],[0.25,0,0],[0.5,0,0],[0.75,0,0],[1,0,0],[0,1,0],[0.25,1,0],[0.5,1,0],[0.75,1,0],[1,1,0],[0,0.25,0],[0,0.5,0],[0,0.75,0],[1,0.25,0],[1,0.5,0],[1,0.75,0]];outlineConnect=0;fontColor=#232F3E;fillColor=#ED7100;strokeColor=#ffffff;dashed=0;verticalLabelPosition=bottom;verticalAlign=top;align=center;html=1;fontSize=12;fontStyle=0;aspect=fixed;shape=mxgraph.aws4.resourceIcon;resIcon=mxgraph.aws4.ec2;rotation=0;" parent="1" vertex="1">
          <mxGeometry x="386" y="920" width="78" height="78" as="geometry" />
        </mxCell>
        <mxCell id="_5ssbvDYdrKCU200Lkuo-37" style="edgeStyle=orthogonalEdgeStyle;rounded=0;orthogonalLoop=1;jettySize=auto;html=1;flowAnimation=1;" parent="1" source="_5ssbvDYdrKCU200Lkuo-21" edge="1">
          <mxGeometry relative="1" as="geometry">
            <mxPoint x="425.5" y="320" as="targetPoint" />
          </mxGeometry>
        </mxCell>
        <mxCell id="_5ssbvDYdrKCU200Lkuo-21" value="" style="sketch=0;outlineConnect=0;fontColor=#232F3E;gradientColor=none;fillColor=#ED7100;strokeColor=none;dashed=0;verticalLabelPosition=bottom;verticalAlign=top;align=center;html=1;fontSize=12;fontStyle=0;aspect=fixed;pointerEvents=1;shape=mxgraph.aws4.lambda_function;" parent="1" vertex="1">
          <mxGeometry x="386" y="540" width="79" height="79" as="geometry" />
        </mxCell>
        <mxCell id="_5ssbvDYdrKCU200Lkuo-22" value="" style="sketch=0;points=[[0,0,0],[0.25,0,0],[0.5,0,0],[0.75,0,0],[1,0,0],[0,1,0],[0.25,1,0],[0.5,1,0],[0.75,1,0],[1,1,0],[0,0.25,0],[0,0.5,0],[0,0.75,0],[1,0.25,0],[1,0.5,0],[1,0.75,0]];outlineConnect=0;fontColor=#232F3E;fillColor=#7AA116;strokeColor=#ffffff;dashed=0;verticalLabelPosition=bottom;verticalAlign=top;align=center;html=1;fontSize=12;fontStyle=0;aspect=fixed;shape=mxgraph.aws4.resourceIcon;resIcon=mxgraph.aws4.s3;" parent="1" vertex="1">
          <mxGeometry x="387" y="200" width="78" height="78" as="geometry" />
        </mxCell>
        <mxCell id="_5ssbvDYdrKCU200Lkuo-24" value="" style="shadow=0;dashed=0;html=1;strokeColor=none;fillColor=#4495D1;labelPosition=center;verticalLabelPosition=bottom;verticalAlign=top;align=center;outlineConnect=0;shape=mxgraph.veeam.checked_doc;" parent="1" vertex="1">
          <mxGeometry x="610" y="160" width="40" height="50" as="geometry" />
        </mxCell>
        <mxCell id="_5ssbvDYdrKCU200Lkuo-25" value="" style="shadow=0;dashed=0;html=1;strokeColor=none;fillColor=#4495D1;labelPosition=center;verticalLabelPosition=bottom;verticalAlign=top;align=center;outlineConnect=0;shape=mxgraph.veeam.checked_doc;" parent="1" vertex="1">
          <mxGeometry x="610" y="320" width="40" height="50" as="geometry" />
        </mxCell>
        <mxCell id="_5ssbvDYdrKCU200Lkuo-26" value="" style="shadow=0;dashed=0;html=1;strokeColor=none;fillColor=#4495D1;labelPosition=center;verticalLabelPosition=bottom;verticalAlign=top;align=center;outlineConnect=0;shape=mxgraph.veeam.checked_doc;" parent="1" vertex="1">
          <mxGeometry x="610" y="240" width="40" height="50" as="geometry" />
        </mxCell>
        <mxCell id="_5ssbvDYdrKCU200Lkuo-28" value="contrato.pdf" style="text;html=1;align=center;verticalAlign=middle;resizable=0;points=[];autosize=1;strokeColor=none;fillColor=none;" parent="1" vertex="1">
          <mxGeometry x="665" y="170" width="90" height="30" as="geometry" />
        </mxCell>
        <mxCell id="_5ssbvDYdrKCU200Lkuo-29" value="evidÃªncia.mp3" style="text;html=1;align=center;verticalAlign=middle;resizable=0;points=[];autosize=1;strokeColor=none;fillColor=none;" parent="1" vertex="1">
          <mxGeometry x="665" y="250" width="100" height="30" as="geometry" />
        </mxCell>
        <mxCell id="_5ssbvDYdrKCU200Lkuo-30" value="brief.docx" style="text;html=1;align=center;verticalAlign=middle;resizable=0;points=[];autosize=1;strokeColor=none;fillColor=none;" parent="1" vertex="1">
          <mxGeometry x="665" y="330" width="80" height="30" as="geometry" />
        </mxCell>
        <mxCell id="_5ssbvDYdrKCU200Lkuo-33" value="" style="swimlane;startSize=0;" parent="1" vertex="1">
          <mxGeometry x="570" y="139.5" width="215" height="251" as="geometry" />
        </mxCell>
        <mxCell id="xkQM3YN7b_TWWr8_xw1Q-3" style="edgeStyle=orthogonalEdgeStyle;rounded=0;orthogonalLoop=1;jettySize=auto;html=1;flowAnimation=1;" edge="1" parent="1" source="_5ssbvDYdrKCU200Lkuo-34">
          <mxGeometry relative="1" as="geometry">
            <mxPoint x="680" y="960" as="targetPoint" />
          </mxGeometry>
        </mxCell>
        <mxCell id="_5ssbvDYdrKCU200Lkuo-34" value="" style="outlineConnect=0;dashed=0;verticalLabelPosition=bottom;verticalAlign=top;align=center;html=1;shape=mxgraph.aws3.volume;fillColor=#E05243;gradientColor=none;" parent="1" vertex="1">
          <mxGeometry x="590" y="923" width="52.5" height="75" as="geometry" />
        </mxCell>
        <mxCell id="_5ssbvDYdrKCU200Lkuo-39" style="edgeStyle=orthogonalEdgeStyle;rounded=0;orthogonalLoop=1;jettySize=auto;html=1;entryX=-0.047;entryY=0.396;entryDx=0;entryDy=0;entryPerimeter=0;flowAnimation=1;" parent="1" source="_5ssbvDYdrKCU200Lkuo-22" target="_5ssbvDYdrKCU200Lkuo-33" edge="1">
          <mxGeometry relative="1" as="geometry" />
        </mxCell>
        <mxCell id="_5ssbvDYdrKCU200Lkuo-40" value="&lt;b&gt;&lt;font style=&quot;font-size: 18px;&quot;&gt;ARQUIVOS&lt;/font&gt;&lt;/b&gt;" style="text;html=1;align=center;verticalAlign=middle;resizable=0;points=[];autosize=1;strokeColor=none;fillColor=none;" parent="1" vertex="1">
          <mxGeometry x="617.5" y="99.5" width="120" height="40" as="geometry" />
        </mxCell>
        <mxCell id="_5ssbvDYdrKCU200Lkuo-41" value="&lt;font style=&quot;font-size: 18px;&quot;&gt;&lt;b&gt;S3&lt;/b&gt;&lt;/font&gt;" style="text;html=1;align=center;verticalAlign=middle;resizable=0;points=[];autosize=1;strokeColor=none;fillColor=none;" parent="1" vertex="1">
          <mxGeometry x="401" y="160" width="50" height="40" as="geometry" />
        </mxCell>
        <mxCell id="_5ssbvDYdrKCU200Lkuo-42" value="&lt;b&gt;&lt;font style=&quot;font-size: 18px;&quot;&gt;EBS&lt;/font&gt;&lt;/b&gt;" style="text;html=1;align=center;verticalAlign=middle;resizable=0;points=[];autosize=1;strokeColor=none;fillColor=none;" parent="1" vertex="1">
          <mxGeometry x="586.25" y="995" width="60" height="40" as="geometry" />
        </mxCell>
        <mxCell id="_5ssbvDYdrKCU200Lkuo-43" value="&lt;b&gt;&lt;font style=&quot;font-size: 18px;&quot;&gt;LAMBDA&lt;br&gt;&lt;/font&gt;&lt;/b&gt;&lt;div&gt;&lt;b&gt;&lt;font size=&quot;3&quot;&gt;FUNCTION&lt;/font&gt;&lt;/b&gt;&lt;/div&gt;" style="text;html=1;align=center;verticalAlign=middle;resizable=0;points=[];autosize=1;strokeColor=none;fillColor=none;" parent="1" vertex="1">
          <mxGeometry x="371" y="619" width="110" height="50" as="geometry" />
        </mxCell>
        <mxCell id="_5ssbvDYdrKCU200Lkuo-44" value="&lt;font style=&quot;font-size: 18px;&quot;&gt;&lt;b&gt;EC2 - SERVIDOR&lt;/b&gt;&lt;/font&gt;&lt;div&gt;&lt;font size=&quot;3&quot;&gt;&lt;b&gt;DA APLICAÃÃO&lt;/b&gt;&lt;/font&gt;&lt;/div&gt;" style="text;html=1;align=center;verticalAlign=middle;resizable=0;points=[];autosize=1;strokeColor=none;fillColor=none;" parent="1" vertex="1">
          <mxGeometry x="341" y="1010" width="170" height="50" as="geometry" />
        </mxCell>
        <mxCell id="x2iw3oUR0Avl4iTRZaq0-1" value="Acesso" style="text;html=1;align=center;verticalAlign=middle;resizable=0;points=[];autosize=1;strokeColor=none;fillColor=none;" parent="1" vertex="1">
          <mxGeometry x="220" y="930" width="60" height="30" as="geometry" />
        </mxCell>
        <mxCell id="x2iw3oUR0Avl4iTRZaq0-2" value="Envio docs" style="text;html=1;align=center;verticalAlign=middle;resizable=0;points=[];autosize=1;strokeColor=none;fillColor=none;" parent="1" vertex="1">
          <mxGeometry x="210" y="950" width="80" height="30" as="geometry" />
        </mxCell>
        <mxCell id="xkQM3YN7b_TWWr8_xw1Q-4" value="" style="swimlane;startSize=0;" vertex="1" parent="1">
          <mxGeometry x="692.5" y="923" width="62.5" height="80" as="geometry" />
        </mxCell>
        <mxCell id="xkQM3YN7b_TWWr8_xw1Q-2" value="Logs e&amp;nbsp;&lt;div&gt;Caches&lt;/div&gt;" style="text;html=1;align=center;verticalAlign=middle;resizable=0;points=[];autosize=1;strokeColor=none;fillColor=none;" vertex="1" parent="xkQM3YN7b_TWWr8_xw1Q-4">
          <mxGeometry x="1.25" y="25" width="60" height="40" as="geometry" />
        </mxCell>
        <mxCell id="xkQM3YN7b_TWWr8_xw1Q-10" value="" style="html=1;verticalLabelPosition=bottom;align=center;labelBackgroundColor=#ffffff;verticalAlign=top;strokeWidth=2;strokeColor=#0080F0;shadow=0;dashed=0;shape=mxgraph.ios7.icons.data;" vertex="1" parent="1">
          <mxGeometry x="508" y="830" width="32" height="49.1" as="geometry" />
        </mxCell>
        <mxCell id="xkQM3YN7b_TWWr8_xw1Q-11" value="&lt;font style=&quot;font-size: 18px;&quot;&gt;&lt;b&gt;RDS&lt;/b&gt;&lt;/font&gt;" style="text;html=1;align=center;verticalAlign=middle;resizable=0;points=[];autosize=1;strokeColor=none;fillColor=none;" vertex="1" parent="1">
          <mxGeometry x="494" y="793" width="60" height="40" as="geometry" />
        </mxCell>
      </root>
    </mxGraphModel>
  </diagram>
</mxfile>
